<svg width="40" height="40" viewBox="0 0 14 14" fill="none" xmlns="http://www.w3.org/2000/svg">
<g clip-path="url(#clip0_203_12130)">
<path d="M2.49998 8.83325H0.678589" stroke="white" stroke-linecap="round" stroke-linejoin="round"/>
<path d="M13.3213 8.83325H11.4999" stroke="white" stroke-linecap="round" stroke-linejoin="round"/>
<path d="M2.49998 5.16675H0.678589" stroke="white" stroke-linecap="round" stroke-linejoin="round"/>
<path d="M13.3213 5.16675H11.4999" stroke="white" stroke-linecap="round" stroke-linejoin="round"/>
<path d="M5.16675 2.49998V0.678589" stroke="white" stroke-linecap="round" stroke-linejoin="round"/>
<path d="M5.16675 13.3213V11.4999" stroke="white" stroke-linecap="round" stroke-linejoin="round"/>
<path d="M8.83325 2.49998V0.678589" stroke="white" stroke-linecap="round" stroke-linejoin="round"/>
<path d="M8.83325 13.3213V11.4999" stroke="white" stroke-linecap="round" stroke-linejoin="round"/>
<path d="M10.5 2.5H3.5C2.94772 2.5 2.5 2.94772 2.5 3.5V10.5C2.5 11.0523 2.94772 11.5 3.5 11.5H10.5C11.0523 11.5 11.5 11.0523 11.5 10.5V3.5C11.5 2.94772 11.0523 2.5 10.5 2.5Z" stroke="white" stroke-linecap="round" stroke-linejoin="round"/>
<path d="M4.66692 7.25076C4.38561 7.20182 4.3856 6.79798 4.66692 6.74904C5.68606 6.57174 6.49664 5.79548 6.71785 4.78496L6.73481 4.7075C6.79567 4.42948 7.19154 4.42775 7.25483 4.70523L7.27542 4.7955C7.50482 5.80125 8.31562 6.57095 9.33193 6.74776C9.61468 6.79695 9.61468 7.20285 9.33193 7.25204C8.31562 7.42885 7.50482 8.19855 7.27542 9.2043L7.25483 9.29457C7.19154 9.57206 6.79567 9.57033 6.73481 9.2923L6.71785 9.21484C6.49664 8.20432 5.68606 7.42806 4.66692 7.25076Z" stroke="white" stroke-linecap="round" stroke-linejoin="round"/>
</g>
<defs>
<clipPath id="clip0_203_12130">
<rect width="14" height="14" fill="white"/>
</clipPath>
</defs>
</svg>
