<svg width="54" height="54" viewBox="0 0 54 54" fill="none" xmlns="http://www.w3.org/2000/svg">
    <path d="M50.6272 27.5247C50.6272 25.5822 50.4664 24.1647 50.1183 22.6947H27.4844V31.4621H40.77C40.5022 33.6409 39.0558 36.9222 35.8414 39.1271L35.7964 39.4206L42.9528 44.8537L43.4486 44.9022C48.0021 40.7809 50.6272 34.7171 50.6272 27.5247Z" fill="#4285F4"/>
    <path d="M27.483 50.625C33.9918 50.625 39.456 48.5249 43.4472 44.9025L35.84 39.1273C33.8043 40.5185 31.0721 41.4898 27.483 41.4898C21.108 41.4898 15.6974 37.3686 13.7686 31.6723L13.4859 31.6958L6.04458 37.3397L5.94727 37.6048C9.91149 45.3223 18.0543 50.625 27.483 50.625Z" fill="#34A853"/>
    <path d="M13.7702 31.6725C13.2613 30.2025 12.9667 28.6274 12.9667 26.9999C12.9667 25.3723 13.2613 23.7974 13.7434 22.3274L13.7299 22.0143L6.19532 16.2799L5.94881 16.3948C4.31495 19.5974 3.37744 23.1937 3.37744 26.9999C3.37744 30.8062 4.31495 34.4023 5.94881 37.6048L13.7702 31.6725Z" fill="#FBBC05"/>
    <path d="M27.4831 12.5099C32.0098 12.5099 35.0633 14.4262 36.8045 16.0275L43.608 9.5175C39.4296 5.71126 33.9919 3.375 27.4831 3.375C18.0544 3.375 9.91152 8.67746 5.94727 16.3949L13.7419 22.3275C15.6974 16.6312 21.1081 12.5099 27.4831 12.5099Z" fill="#EB4335"/>
</svg>
