<svg width="20" height="20" viewBox="0 0 20 20" fill="none" xmlns="http://www.w3.org/2000/svg">
    <g clip-path="url(#clip0_280_26)">
        <path d="M13.5715 15V17.8572C13.5715 18.236 13.421 18.5994 13.1531 18.8673C12.8852 19.1352 12.5218 19.2857 12.1429 19.2857H2.14293C1.76404 19.2857 1.40068 19.1352 1.13277 18.8673C0.864865 18.5994 0.714355 18.236 0.714355 17.8572V2.14287C0.714355 1.76398 0.864865 1.40062 1.13277 1.13271C1.40068 0.864804 1.76404 0.714294 2.14293 0.714294H12.1429C12.5218 0.714294 12.8852 0.864804 13.1531 1.13271C13.421 1.40062 13.5715 1.76398 13.5715 2.14287V5.00001" stroke="white" stroke-linecap="round" stroke-linejoin="round"/>
        <path d="M9.28589 10H19.2859" stroke="white" stroke-linecap="round" stroke-linejoin="round"/>
        <path d="M16.4287 7.14288L19.2859 10L16.4287 12.8572" stroke="white" stroke-linecap="round" stroke-linejoin="round"/>
    </g>
    <defs>
        <clipPath id="clip0_280_26">
            <rect width="20" height="20" fill="white"/>
        </clipPath>
    </defs>
</svg>