<svg width="20" height="20" viewBox="0 0 15 15" fill="none" xmlns="http://www.w3.org/2000/svg">
    <path d="M6.5 4.81128C5.85827 5.29471 5.20564 5.86076 4.56934 6.49706C1.72595 9.34046 0.285313 12.5099 1.35159 13.5762C2.41785 14.6424 5.58726 13.2018 8.43065 10.3584C9.06695 9.72208 9.633 9.06945 10.1164 8.42772" stroke="#7F54FF" strokeLinecap="round" strokeLinejoin="round"/>
    <path d="M10.1164 8.42774C11.7933 10.6537 12.4761 12.7485 11.6484 13.5762C10.5821 14.6425 7.41273 13.2018 4.56934 10.3584C1.72595 7.515 0.285313 4.34559 1.35159 3.27932C2.17924 2.45166 4.27407 3.13445 6.5 4.8113" stroke="#7F54FF" strokeLinecap="round" strokeLinejoin="round"/>
    <path d="M6 8.42773C6 8.70387 6.22386 8.92773 6.5 8.92773C6.77614 8.92773 7 8.70387 7 8.42773C7 8.15158 6.77614 7.92773 6.5 7.92773C6.22386 7.92773 6 8.15158 6 8.42773Z" stroke="#7F54FF" strokeLinecap="round" strokeLinejoin="round"/>
    <path d="M8.50934 4.07388C8.19521 4.01923 8.19521 3.56828 8.50934 3.51363C9.64739 3.31564 10.5525 2.44882 10.7995 1.32039L10.8185 1.23389C10.8864 0.923428 11.3285 0.921496 11.3992 1.23136L11.4222 1.33216C11.6783 2.45526 12.5837 3.31476 13.7186 3.5122C14.0344 3.56713 14.0344 4.02038 13.7186 4.07531C12.5837 4.27275 11.6783 5.13226 11.4222 6.25536L11.3992 6.35616C11.3285 6.66602 10.8864 6.66409 10.8185 6.35362L10.7995 6.26712C10.5525 5.1387 9.64739 4.27187 8.50934 4.07388Z" stroke="#7F54FF" strokeLinecap="round" strokeLinejoin="round"/>
</svg>
